{
    "asset" : {
        "generator" : "Khronos glTF Blender I/O v1.6.16",
        "version" : "2.0"
    },
    "scene" : 0,
    "scenes" : [
        {
            "name" : "Scene",
            "nodes" : [
                0,
                1,
                2,
                3,
                4
            ]
        }
    ],
    "nodes" : [
        {
            "name" : "Light.001",
            "rotation" : [
                0.16907575726509094,
                0.7558803558349609,
                -0.27217137813568115,
                0.570947527885437
            ],
            "translation" : [
                4.076245307922363,
                5.903861999511719,
                -1.0054539442062378
            ]
        },
        {
            "name" : "Camera.001",
            "rotation" : [
                0.483536034822464,
                0.33687159419059753,
                -0.20870360732078552,
                0.7804827094078064
            ],
            "translation" : [
                7.358891487121582,
                4.958309173583984,
                6.925790786743164
            ]
        },
        {
            "name" : "Light",
            "rotation" : [
                0.16907575726509094,
                0.7558803558349609,
                -0.27217137813568115,
                0.570947527885437
            ],
            "translation" : [
                4.076245307922363,
                5.903861999511719,
                -1.0054539442062378
            ]
        },
        {
            "name" : "Camera",
            "rotation" : [
                0.483536034822464,
                0.33687159419059753,
                -0.20870360732078552,
                0.7804827094078064
            ],
            "translation" : [
                7.358891487121582,
                4.958309173583984,
                6.925790786743164
            ]
        },
        {
            "mesh" : 0,
            "name" : "girl"
        }
    ],
    "materials" : [
        {
            "doubleSided" : true,
            "name" : "Material.012",
            "pbrMetallicRoughness" : {
                "baseColorTexture" : {
                    "index" : 0
                },
                "metallicFactor" : 0,
                "roughnessFactor" : 0.6732679605484009
            }
        },
        {
            "doubleSided" : true,
            "name" : "Hair",
            "pbrMetallicRoughness" : {
                "baseColorFactor" : [
                    1,
                    0.5332764387130737,
                    0.057805463671684265,
                    1
                ],
                "metallicFactor" : 0
            }
        },
        {
            "doubleSided" : true,
            "name" : "Material.014",
            "pbrMetallicRoughness" : {
                "baseColorTexture" : {
                    "index" : 1
                },
                "metallicFactor" : 0,
                "roughnessFactor" : 0.6732679605484009
            }
        },
        {
            "doubleSided" : true,
            "name" : "Material.013",
            "pbrMetallicRoughness" : {
                "baseColorTexture" : {
                    "index" : 2
                },
                "metallicFactor" : 0,
                "roughnessFactor" : 0.6732679605484009
            }
        },
        {
            "doubleSided" : true,
            "name" : "Skin",
            "pbrMetallicRoughness" : {
                "baseColorFactor" : [
                    1,
                    0.48514994978904724,
                    0.25415217876434326,
                    1
                ],
                "metallicFactor" : 0,
                "roughnessFactor" : 0.5
            }
        },
        {
            "doubleSided" : true,
            "name" : "Material.011",
            "pbrMetallicRoughness" : {
                "baseColorTexture" : {
                    "index" : 3
                },
                "metallicFactor" : 0,
                "roughnessFactor" : 0.6732679605484009
            }
        },
        {
            "doubleSided" : true,
            "name" : "None_stripes_girl.png",
            "pbrMetallicRoughness" : {
                "baseColorTexture" : {
                    "index" : 4
                },
                "metallicFactor" : 0
            }
        },
        {
            "doubleSided" : true,
            "name" : "Legs",
            "pbrMetallicRoughness" : {
                "baseColorFactor" : [
                    0.8713675737380981,
                    0.2622506320476532,
                    0.3813261389732361,
                    1
                ],
                "metallicFactor" : 0
            }
        },
        {
            "doubleSided" : true,
            "name" : "Feet",
            "pbrMetallicRoughness" : {
                "baseColorFactor" : [
                    0.15896089375019073,
                    0.04373502358794212,
                    0.015996303409337997,
                    1
                ],
                "metallicFactor" : 0
            }
        }
    ],
    "meshes" : [
        {
            "name" : "player_body.002_Cube.020",
            "primitives" : [
                {
                    "attributes" : {
                        "POSITION" : 0,
                        "NORMAL" : 1,
                        "TEXCOORD_0" : 2
                    },
                    "indices" : 3,
                    "material" : 0
                },
                {
                    "attributes" : {
                        "POSITION" : 4,
                        "NORMAL" : 5,
                        "TEXCOORD_0" : 6
                    },
                    "indices" : 7,
                    "material" : 1
                },
                {
                    "attributes" : {
                        "POSITION" : 8,
                        "NORMAL" : 9,
                        "TEXCOORD_0" : 10
                    },
                    "indices" : 11,
                    "material" : 2
                },
                {
                    "attributes" : {
                        "POSITION" : 12,
                        "NORMAL" : 13,
                        "TEXCOORD_0" : 14
                    },
                    "indices" : 15,
                    "material" : 3
                },
                {
                    "attributes" : {
                        "POSITION" : 16,
                        "NORMAL" : 17,
                        "TEXCOORD_0" : 18
                    },
                    "indices" : 19,
                    "material" : 4
                },
                {
                    "attributes" : {
                        "POSITION" : 20,
                        "NORMAL" : 21,
                        "TEXCOORD_0" : 22
                    },
                    "indices" : 23,
                    "material" : 5
                },
                {
                    "attributes" : {
                        "POSITION" : 24,
                        "NORMAL" : 25,
                        "TEXCOORD_0" : 26
                    },
                    "indices" : 27,
                    "material" : 6
                },
                {
                    "attributes" : {
                        "POSITION" : 28,
                        "NORMAL" : 29,
                        "TEXCOORD_0" : 30
                    },
                    "indices" : 31,
                    "material" : 7
                },
                {
                    "attributes" : {
                        "POSITION" : 32,
                        "NORMAL" : 33,
                        "TEXCOORD_0" : 34
                    },
                    "indices" : 35,
                    "material" : 8
                }
            ]
        }
    ],
    "textures" : [
        {
            "sampler" : 0,
            "source" : 0
        },
        {
            "sampler" : 0,
            "source" : 1
        },
        {
            "sampler" : 0,
            "source" : 2
        },
        {
            "sampler" : 0,
            "source" : 3
        },
        {
            "sampler" : 0,
            "source" : 0
        }
    ],
    "images" : [
        {
            "mimeType" : "image/png",
            "name" : "stripes_girl",
            "uri" : "stripes_girl.png"
        },
        {
            "mimeType" : "image/png",
            "name" : "skirt",
            "uri" : "skirt.png"
        },
        {
            "mimeType" : "image/png",
            "name" : "pants_girl",
            "uri" : "pants_girl.png"
        },
        {
            "mimeType" : "image/png",
            "name" : "face_girl",
            "uri" : "face_girl.png"
        }
    ],
    "accessors" : [
        {
            "bufferView" : 0,
            "componentType" : 5126,
            "count" : 50,
            "max" : [
                26.162986755371094,
                177.24517822265625,
                20.992704391479492
            ],
            "min" : [
                -26.162933349609375,
                117.79341888427734,
                -21.478252410888672
            ],
            "type" : "VEC3"
        },
        {
            "bufferView" : 1,
            "componentType" : 5126,
            "count" : 50,
            "type" : "VEC3"
        },
        {
            "bufferView" : 2,
            "componentType" : 5126,
            "count" : 50,
            "type" : "VEC2"
        },
        {
            "bufferView" : 3,
            "componentType" : 5123,
            "count" : 54,
            "type" : "SCALAR"
        },
        {
            "bufferView" : 4,
            "componentType" : 5126,
            "count" : 131,
            "max" : [
                58.862579345703125,
                247.3065185546875,
                76.70966339111328
            ],
            "min" : [
                -58.86254119873047,
                54.95732116699219,
                -25.90159034729004
            ],
            "type" : "VEC3"
        },
        {
            "bufferView" : 5,
            "componentType" : 5126,
            "count" : 131,
            "type" : "VEC3"
        },
        {
            "bufferView" : 6,
            "componentType" : 5126,
            "count" : 131,
            "type" : "VEC2"
        },
        {
            "bufferView" : 7,
            "componentType" : 5123,
            "count" : 147,
            "type" : "SCALAR"
        },
        {
            "bufferView" : 8,
            "componentType" : 5126,
            "count" : 31,
            "max" : [
                63.31437301635742,
                89.66173553466797,
                42.488311767578125
            ],
            "min" : [
                -63.31435775756836,
                42.633174896240234,
                -41.27034378051758
            ],
            "type" : "VEC3"
        },
        {
            "bufferView" : 9,
            "componentType" : 5126,
            "count" : 31,
            "type" : "VEC3"
        },
        {
            "bufferView" : 10,
            "componentType" : 5126,
            "count" : 31,
            "type" : "VEC2"
        },
        {
            "bufferView" : 11,
            "componentType" : 5123,
            "count" : 33,
            "type" : "SCALAR"
        },
        {
            "bufferView" : 12,
            "componentType" : 5126,
            "count" : 40,
            "max" : [
                26.16297149658203,
                129.52459716796875,
                17.415849685668945
            ],
            "min" : [
                -26.162948608398438,
                63.85164260864258,
                -21.82845687866211
            ],
            "type" : "VEC3"
        },
        {
            "bufferView" : 13,
            "componentType" : 5126,
            "count" : 40,
            "type" : "VEC3"
        },
        {
            "bufferView" : 14,
            "componentType" : 5126,
            "count" : 40,
            "type" : "VEC2"
        },
        {
            "bufferView" : 15,
            "componentType" : 5123,
            "count" : 48,
            "type" : "SCALAR"
        },
        {
            "bufferView" : 16,
            "componentType" : 5126,
            "count" : 101,
            "max" : [
                61.012351989746094,
                230.80140686035156,
                38.92499542236328
            ],
            "min" : [
                -61.01232147216797,
                82.70790100097656,
                -28.741592407226562
            ],
            "type" : "VEC3"
        },
        {
            "bufferView" : 17,
            "componentType" : 5126,
            "count" : 101,
            "type" : "VEC3"
        },
        {
            "bufferView" : 18,
            "componentType" : 5126,
            "count" : 101,
            "type" : "VEC2"
        },
        {
            "bufferView" : 19,
            "componentType" : 5123,
            "count" : 105,
            "type" : "SCALAR"
        },
        {
            "bufferView" : 20,
            "componentType" : 5126,
            "count" : 15,
            "max" : [
                38.94871139526367,
                219.0408477783203,
                12.716422080993652
            ],
            "min" : [
                -38.94865036010742,
                176.31517028808594,
                -28.741592407226562
            ],
            "type" : "VEC3"
        },
        {
            "bufferView" : 21,
            "componentType" : 5126,
            "count" : 15,
            "type" : "VEC3"
        },
        {
            "bufferView" : 22,
            "componentType" : 5126,
            "count" : 15,
            "type" : "VEC2"
        },
        {
            "bufferView" : 23,
            "componentType" : 5123,
            "count" : 15,
            "type" : "SCALAR"
        },
        {
            "bufferView" : 24,
            "componentType" : 5126,
            "count" : 152,
            "max" : [
                54.59392166137695,
                162.78472900390625,
                23.027698516845703
            ],
            "min" : [
                -54.59389114379883,
                94.01754760742188,
                -12.843996047973633
            ],
            "type" : "VEC3"
        },
        {
            "bufferView" : 25,
            "componentType" : 5126,
            "count" : 152,
            "type" : "VEC3"
        },
        {
            "bufferView" : 26,
            "componentType" : 5126,
            "count" : 152,
            "type" : "VEC2"
        },
        {
            "bufferView" : 27,
            "componentType" : 5123,
            "count" : 168,
            "type" : "SCALAR"
        },
        {
            "bufferView" : 28,
            "componentType" : 5126,
            "count" : 152,
            "max" : [
                33.143272399902344,
                80.31851959228516,
                20.741029739379883
            ],
            "min" : [
                -33.14326477050781,
                11.30878734588623,
                -17.86199378967285
            ],
            "type" : "VEC3"
        },
        {
            "bufferView" : 29,
            "componentType" : 5126,
            "count" : 152,
            "type" : "VEC3"
        },
        {
            "bufferView" : 30,
            "componentType" : 5126,
            "count" : 152,
            "type" : "VEC2"
        },
        {
            "bufferView" : 31,
            "componentType" : 5123,
            "count" : 168,
            "type" : "SCALAR"
        },
        {
            "bufferView" : 32,
            "componentType" : 5126,
            "count" : 80,
            "max" : [
                35.36375045776367,
                18.285810470581055,
                20.829313278198242
            ],
            "min" : [
                -35.36375045776367,
                -1.3542349961426225e-06,
                -16.405532836914062
            ],
            "type" : "VEC3"
        },
        {
            "bufferView" : 33,
            "componentType" : 5126,
            "count" : 80,
            "type" : "VEC3"
        },
        {
            "bufferView" : 34,
            "componentType" : 5126,
            "count" : 80,
            "type" : "VEC2"
        },
        {
            "bufferView" : 35,
            "componentType" : 5123,
            "count" : 84,
            "type" : "SCALAR"
        }
    ],
    "bufferViews" : [
        {
            "buffer" : 0,
            "byteLength" : 600,
            "byteOffset" : 0
        },
        {
            "buffer" : 0,
            "byteLength" : 600,
            "byteOffset" : 600
        },
        {
            "buffer" : 0,
            "byteLength" : 400,
            "byteOffset" : 1200
        },
        {
            "buffer" : 0,
            "byteLength" : 108,
            "byteOffset" : 1600
        },
        {
            "buffer" : 0,
            "byteLength" : 1572,
            "byteOffset" : 1708
        },
        {
            "buffer" : 0,
            "byteLength" : 1572,
            "byteOffset" : 3280
        },
        {
            "buffer" : 0,
            "byteLength" : 1048,
            "byteOffset" : 4852
        },
        {
            "buffer" : 0,
            "byteLength" : 294,
            "byteOffset" : 5900
        },
        {
            "buffer" : 0,
            "byteLength" : 372,
            "byteOffset" : 6196
        },
        {
            "buffer" : 0,
            "byteLength" : 372,
            "byteOffset" : 6568
        },
        {
            "buffer" : 0,
            "byteLength" : 248,
            "byteOffset" : 6940
        },
        {
            "buffer" : 0,
            "byteLength" : 66,
            "byteOffset" : 7188
        },
        {
            "buffer" : 0,
            "byteLength" : 480,
            "byteOffset" : 7256
        },
        {
            "buffer" : 0,
            "byteLength" : 480,
            "byteOffset" : 7736
        },
        {
            "buffer" : 0,
            "byteLength" : 320,
            "byteOffset" : 8216
        },
        {
            "buffer" : 0,
            "byteLength" : 96,
            "byteOffset" : 8536
        },
        {
            "buffer" : 0,
            "byteLength" : 1212,
            "byteOffset" : 8632
        },
        {
            "buffer" : 0,
            "byteLength" : 1212,
            "byteOffset" : 9844
        },
        {
            "buffer" : 0,
            "byteLength" : 808,
            "byteOffset" : 11056
        },
        {
            "buffer" : 0,
            "byteLength" : 210,
            "byteOffset" : 11864
        },
        {
            "buffer" : 0,
            "byteLength" : 180,
            "byteOffset" : 12076
        },
        {
            "buffer" : 0,
            "byteLength" : 180,
            "byteOffset" : 12256
        },
        {
            "buffer" : 0,
            "byteLength" : 120,
            "byteOffset" : 12436
        },
        {
            "buffer" : 0,
            "byteLength" : 30,
            "byteOffset" : 12556
        },
        {
            "buffer" : 0,
            "byteLength" : 1824,
            "byteOffset" : 12588
        },
        {
            "buffer" : 0,
            "byteLength" : 1824,
            "byteOffset" : 14412
        },
        {
            "buffer" : 0,
            "byteLength" : 1216,
            "byteOffset" : 16236
        },
        {
            "buffer" : 0,
            "byteLength" : 336,
            "byteOffset" : 17452
        },
        {
            "buffer" : 0,
            "byteLength" : 1824,
            "byteOffset" : 17788
        },
        {
            "buffer" : 0,
            "byteLength" : 1824,
            "byteOffset" : 19612
        },
        {
            "buffer" : 0,
            "byteLength" : 1216,
            "byteOffset" : 21436
        },
        {
            "buffer" : 0,
            "byteLength" : 336,
            "byteOffset" : 22652
        },
        {
            "buffer" : 0,
            "byteLength" : 960,
            "byteOffset" : 22988
        },
        {
            "buffer" : 0,
            "byteLength" : 960,
            "byteOffset" : 23948
        },
        {
            "buffer" : 0,
            "byteLength" : 640,
            "byteOffset" : 24908
        },
        {
            "buffer" : 0,
            "byteLength" : 168,
            "byteOffset" : 25548
        }
    ],
    "samplers" : [
        {
            "magFilter" : 9729,
            "minFilter" : 9987
        }
    ],
    "buffers" : [
        {
            "byteLength" : 25716,
            "uri" : "girl.bin"
        }
    ]
}
